<?xml version="1.0" encoding="UTF-8" standalone="no"?>
<!DOCTYPE svg PUBLIC "-//W3C//DTD SVG 1.1//EN" "http://www.w3.org/Graphics/SVG/1.1/DTD/svg11.dtd">
<!-- Generated by graphviz version 2.40.1 (20161225.0304)
 -->
<!-- Title: HeapMemoryManager Pages: 1 -->
<svg width="479pt" height="818pt" viewBox="0.00 0.00 478.62 818.40" xmlns="http://www.w3.org/2000/svg" xmlns:xlink="http://www.w3.org/1999/xlink">
<g id="graph0" class="graph" transform="scale(1 1) rotate(0) translate(4 814.4)">
<title>HeapMemoryManager</title>
<!-- start -->
<g id="node1" class="node">
<title>start</title>
<ellipse fill="none" stroke="#ffffff" cx="95.4754" cy="-792.4" rx="29.049" ry="18"/>
<text text-anchor="middle" x="95.4754" y="-788.2" font-family="Times,serif" font-size="14.00" fill="#ffffff">Start</text>
</g>
<!-- check_null_ptr -->
<g id="node2" class="node">
<title>check_null_ptr</title>
<polygon fill="none" stroke="#ffffff" points="95.4754,-737.4 .0246,-719.4 95.4754,-701.4 190.9261,-719.4 95.4754,-737.4"/>
<text text-anchor="middle" x="95.4754" y="-715.2" font-family="Times,serif" font-size="14.00" fill="#ffffff">ptr == NULL?</text>
</g>
<!-- start&#45;&gt;check_null_ptr -->
<g id="edge1" class="edge">
<title>start-&gt;check_null_ptr</title>
<path fill="none" stroke="#ffffff" d="M95.4754,-774.3551C95.4754,-766.2828 95.4754,-756.5764 95.4754,-747.5817"/>
<polygon fill="#ffffff" stroke="#ffffff" points="98.9755,-747.4903 95.4754,-737.4904 91.9755,-747.4904 98.9755,-747.4903"/>
</g>
<!-- return_void -->
<g id="node3" class="node">
<title>return_void</title>
<polygon fill="none" stroke="#ffffff" points="96.4754,-594.6 42.4754,-594.6 42.4754,-558.6 96.4754,-558.6 96.4754,-594.6"/>
<text text-anchor="middle" x="69.4754" y="-572.4" font-family="Times,serif" font-size="14.00" fill="#ffffff">return</text>
</g>
<!-- check_null_ptr&#45;&gt;return_void -->
<g id="edge2" class="edge">
<title>check_null_ptr-&gt;return_void</title>
<path fill="none" stroke="#00ff00" d="M92.2873,-701.8899C87.8671,-677.6131 79.8288,-633.4642 74.571,-604.5868"/>
<polygon fill="#00ff00" stroke="#00ff00" points="78.0063,-603.9151 72.7716,-594.7038 71.1196,-605.1691 78.0063,-603.9151"/>
<text text-anchor="middle" x="98.805" y="-670.8" font-family="Times,serif" font-size="14.00" fill="#00ff00">yes</text>
</g>
<!-- get_block_header -->
<g id="node4" class="node">
<title>get_block_header</title>
<polygon fill="none" stroke="#ffffff" points="268.3033,-648.6 104.6474,-648.6 104.6474,-612.6 268.3033,-612.6 268.3033,-648.6"/>
<text text-anchor="middle" x="186.4754" y="-626.4" font-family="Times,serif" font-size="14.00" fill="#ffffff">Get BlockHeader from ptr</text>
</g>
<!-- check_null_ptr&#45;&gt;get_block_header -->
<g id="edge3" class="edge">
<title>check_null_ptr-&gt;get_block_header</title>
<path fill="none" stroke="#ff0000" d="M111.3264,-703.9322C124.8923,-690.6942 144.6866,-671.3785 160.5548,-655.8939"/>
<polygon fill="#ff0000" stroke="#ff0000" points="163.2721,-658.1326 167.9848,-648.6436 158.3833,-653.1226 163.2721,-658.1326"/>
<text text-anchor="middle" x="156.4754" y="-670.8" font-family="Times,serif" font-size="14.00" fill="#ff0000">no</text>
</g>
<!-- end -->
<g id="node13" class="node">
<title>end</title>
<ellipse fill="none" stroke="#ffffff" cx="139.4754" cy="-18" rx="27" ry="18"/>
<text text-anchor="middle" x="139.4754" y="-13.8" font-family="Times,serif" font-size="14.00" fill="#ffffff">End</text>
</g>
<!-- return_void&#45;&gt;end -->
<g id="edge13" class="edge">
<title>return_void-&gt;end</title>
<path fill="none" stroke="#ffffff" d="M66.8238,-558.5094C64.169,-538.8044 60.4754,-506.3336 60.4754,-478.2 60.4754,-478.2 60.4754,-478.2 60.4754,-91 60.4754,-64.2024 85.2982,-44.5099 107.1151,-32.3771"/>
<polygon fill="#ffffff" stroke="#ffffff" points="108.9503,-35.3676 116.2001,-27.6416 105.7146,-29.1602 108.9503,-35.3676"/>
</g>
<!-- check_double_free -->
<g id="node5" class="node">
<title>check_double_free</title>
<polygon fill="none" stroke="#ffffff" points="189.4754,-540.6 88.1484,-522.6 189.4754,-504.6 290.8023,-522.6 189.4754,-540.6"/>
<text text-anchor="middle" x="189.4754" y="-518.4" font-family="Times,serif" font-size="14.00" fill="#ffffff">block-&gt;is_free?</text>
</g>
<!-- get_block_header&#45;&gt;check_double_free -->
<g id="edge4" class="edge">
<title>get_block_header-&gt;check_double_free</title>
<path fill="none" stroke="#ffffff" d="M186.9843,-612.2793C187.4526,-595.421 188.1541,-570.1651 188.6935,-550.747"/>
<polygon fill="#ffffff" stroke="#ffffff" points="192.1949,-550.7435 188.974,-540.6502 185.1976,-550.5491 192.1949,-550.7435"/>
</g>
<!-- handle_double_free -->
<g id="node6" class="node">
<title>handle_double_free</title>
<polygon fill="none" stroke="#ffffff" points="247.4538,-397.8 93.497,-397.8 93.497,-361.8 247.4538,-361.8 247.4538,-397.8"/>
<text text-anchor="middle" x="170.4754" y="-375.6" font-family="Times,serif" font-size="14.00" fill="#ffffff">Handle double free error</text>
</g>
<!-- check_double_free&#45;&gt;handle_double_free -->
<g id="edge5" class="edge">
<title>check_double_free-&gt;handle_double_free</title>
<path fill="none" stroke="#00ff00" d="M187.1074,-504.803C183.879,-480.5386 178.0608,-436.8106 174.2331,-408.0426"/>
<polygon fill="#00ff00" stroke="#00ff00" points="177.6616,-407.2723 172.8732,-397.8213 170.7227,-408.1956 177.6616,-407.2723"/>
<text text-anchor="middle" x="193.805" y="-474" font-family="Times,serif" font-size="14.00" fill="#00ff00">yes</text>
</g>
<!-- mark_free -->
<g id="node7" class="node">
<title>mark_free</title>
<polygon fill="none" stroke="#ffffff" points="328.3104,-451.8 206.6403,-451.8 206.6403,-415.8 328.3104,-415.8 328.3104,-451.8"/>
<text text-anchor="middle" x="267.4754" y="-429.6" font-family="Times,serif" font-size="14.00" fill="#ffffff">Mark block as free</text>
</g>
<!-- check_double_free&#45;&gt;mark_free -->
<g id="edge6" class="edge">
<title>check_double_free-&gt;mark_free</title>
<path fill="none" stroke="#ff0000" d="M203.4202,-506.7243C214.9132,-493.64 231.4405,-474.8243 244.8283,-459.5829"/>
<polygon fill="#ff0000" stroke="#ff0000" points="247.5299,-461.8106 251.4997,-451.9876 242.2707,-457.191 247.5299,-461.8106"/>
<text text-anchor="middle" x="241.4754" y="-474" font-family="Times,serif" font-size="14.00" fill="#ff0000">no</text>
</g>
<!-- handle_double_free&#45;&gt;end -->
<g id="edge12" class="edge">
<title>handle_double_free-&gt;end</title>
<path fill="none" stroke="#ffffff" d="M143.6652,-361.5913C123.1946,-345.3109 98.4754,-319.4164 98.4754,-289.3 98.4754,-289.3 98.4754,-289.3 98.4754,-91 98.4754,-72.8758 108.2017,-55.0891 118.1798,-41.6107"/>
<polygon fill="#ffffff" stroke="#ffffff" points="121.2063,-43.4269 124.6734,-33.4154 115.7198,-39.0796 121.2063,-43.4269"/>
</g>
<!-- coalesce_prev -->
<g id="node8" class="node">
<title>coalesce_prev</title>
<polygon fill="none" stroke="#ffffff" points="387.5111,-343.8 169.4397,-343.8 169.4397,-307.8 387.5111,-307.8 387.5111,-343.8"/>
<text text-anchor="middle" x="278.4754" y="-321.6" font-family="Times,serif" font-size="14.00" fill="#ffffff">Coalesce with previous block if free</text>
</g>
<!-- mark_free&#45;&gt;coalesce_prev -->
<g id="edge7" class="edge">
<title>mark_free-&gt;coalesce_prev</title>
<path fill="none" stroke="#ffffff" d="M269.3414,-415.4793C271.0584,-398.621 273.6308,-373.3651 275.6086,-353.947"/>
<polygon fill="#ffffff" stroke="#ffffff" points="279.1056,-354.1534 276.6369,-343.8502 272.1416,-353.444 279.1056,-354.1534"/>
</g>
<!-- coalesce_next -->
<g id="node9" class="node">
<title>coalesce_next</title>
<polygon fill="none" stroke="#ffffff" points="383.9059,-270.8 189.0449,-270.8 189.0449,-234.8 383.9059,-234.8 383.9059,-270.8"/>
<text text-anchor="middle" x="286.4754" y="-248.6" font-family="Times,serif" font-size="14.00" fill="#ffffff">Coalesce with next block if free</text>
</g>
<!-- coalesce_prev&#45;&gt;coalesce_next -->
<g id="edge8" class="edge">
<title>coalesce_prev-&gt;coalesce_next</title>
<path fill="none" stroke="#ffffff" d="M280.4529,-307.7551C281.3375,-299.6828 282.4013,-289.9764 283.387,-280.9817"/>
<polygon fill="#ffffff" stroke="#ffffff" points="286.8826,-281.2122 284.4929,-270.8904 279.9242,-280.4495 286.8826,-281.2122"/>
</g>
<!-- check_program_break -->
<g id="node10" class="node">
<title>check_program_break</title>
<polygon fill="none" stroke="#ffffff" points="288.4754,-197.8 126.784,-179.8 288.4754,-161.8 450.1667,-179.8 288.4754,-197.8"/>
<text text-anchor="middle" x="288.4754" y="-175.6" font-family="Times,serif" font-size="14.00" fill="#ffffff">Can lower program break?</text>
</g>
<!-- coalesce_next&#45;&gt;check_program_break -->
<g id="edge9" class="edge">
<title>coalesce_next-&gt;check_program_break</title>
<path fill="none" stroke="#ffffff" d="M286.9698,-234.7551C287.1909,-226.6828 287.4568,-216.9764 287.7033,-207.9817"/>
<polygon fill="#ffffff" stroke="#ffffff" points="291.2045,-207.9825 287.9797,-197.8904 284.2071,-207.7907 291.2045,-207.9825"/>
</g>
<!-- lower_program_break -->
<g id="node11" class="node">
<title>lower_program_break</title>
<polygon fill="none" stroke="#ffffff" points="350.8573,-109 126.0935,-109 126.0935,-73 350.8573,-73 350.8573,-109"/>
<text text-anchor="middle" x="238.4754" y="-86.8" font-family="Times,serif" font-size="14.00" fill="#ffffff">Lower program break using my_sbrk</text>
</g>
<!-- check_program_break&#45;&gt;lower_program_break -->
<g id="edge10" class="edge">
<title>check_program_break-&gt;lower_program_break</title>
<path fill="none" stroke="#00ff00" d="M278.8349,-162.6785C271.7582,-150.1102 262.0006,-132.7808 253.8525,-118.3098"/>
<polygon fill="#00ff00" stroke="#00ff00" points="256.731,-116.2882 248.7748,-109.2917 250.6314,-119.7227 256.731,-116.2882"/>
<text text-anchor="middle" x="276.805" y="-131.2" font-family="Times,serif" font-size="14.00" fill="#00ff00">yes</text>
</g>
<!-- update_free_list -->
<g id="node12" class="node">
<title>update_free_list</title>
<polygon fill="none" stroke="#ffffff" points="470.769,-109 368.1818,-109 368.1818,-73 470.769,-73 470.769,-109"/>
<text text-anchor="middle" x="419.4754" y="-86.8" font-family="Times,serif" font-size="14.00" fill="#ffffff">Update free list</text>
</g>
<!-- check_program_break&#45;&gt;update_free_list -->
<g id="edge11" class="edge">
<title>check_program_break-&gt;update_free_list</title>
<path fill="none" stroke="#ff0000" d="M311.2938,-164.3322C331.4442,-150.673 361.1402,-130.5432 384.324,-114.8278"/>
<polygon fill="#ff0000" stroke="#ff0000" points="386.5434,-117.5517 392.857,-109.0436 382.6157,-111.7575 386.5434,-117.5517"/>
<text text-anchor="middle" x="372.4754" y="-131.2" font-family="Times,serif" font-size="14.00" fill="#ff0000">no</text>
</g>
<!-- lower_program_break&#45;&gt;end -->
<g id="edge14" class="edge">
<title>lower_program_break-&gt;end</title>
<path fill="none" stroke="#ffffff" d="M214.0035,-72.9551C199.4525,-62.2255 180.9858,-48.6087 166.0751,-37.6139"/>
<polygon fill="#ffffff" stroke="#ffffff" points="167.889,-34.6029 157.7633,-31.485 163.7347,-40.2368 167.889,-34.6029"/>
</g>
<!-- update_free_list&#45;&gt;end -->
<g id="edge15" class="edge">
<title>update_free_list-&gt;end</title>
<path fill="none" stroke="#ffffff" d="M368.1337,-75.4265C365.2083,-74.5924 362.3067,-73.7782 359.4754,-73 294.6333,-55.1788 218.38,-36.6541 174.8089,-26.2982"/>
<polygon fill="#ffffff" stroke="#ffffff" points="175.5203,-22.87 164.9827,-23.9697 173.9061,-29.6813 175.5203,-22.87"/>
</g>
</g>
</svg>